<svg xmlns="http://www.w3.org/2000/svg" xmlns:xlink="http://www.w3.org/1999/xlink" version="1.1" x="0px" y="0px" viewBox="0 0 64 137.5" enable-background="new 0 0 64 110" xml:space="preserve"><path d="M58.314,98.974h-4.15c-0.659-0.341-1.446-0.812-1.811-1.277c0.002-0.069,0.003-0.141,0.003-0.213  c0-0.822-0.119-1.489-0.941-1.489h-3.989V39.289c0,0-3.082-1.438-16.231-1.438c-0.285,0-0.558,0.029-0.819,0.084  c-11.259,0.151-13.986,1.423-13.986,1.423v56.637h-4.046c-0.822,0-0.873,0.667-0.873,1.489c-0.052,0.499-0.84,1.059-1.606,1.49  H5.719C5.322,98.974,5,99.295,5,99.692c0,0.396,0.322,0.719,0.719,0.719h52.596c0.397,0,0.719-0.322,0.719-0.719  C59.033,99.295,58.711,98.974,58.314,98.974z"/><path d="M30.649,37.01c0.261-0.055,0.534-0.083,0.819-0.083c7.86,0,12.122,0.514,14.279,0.927V10.937v-0.513  c0,0-4.841-2.157-13.566-2.26c-8.725-0.103-13.759,2.26-13.759,2.26V37.96C20.312,37.582,23.987,37.1,30.649,37.01z"/><path d="M32.017,5.76c10.859,0,19.801,1.317,20.978,3.01c0.087-0.125,0.132-0.251,0.132-0.38c0-1.872-9.451-3.39-21.11-3.39  s-21.11,1.518-21.11,3.39c0,0.128,0.046,0.255,0.133,0.38C12.215,7.077,21.158,5.76,32.017,5.76z"/><g><path d="M32.017,6.185c-11.659,0-21.11,1.518-21.11,3.39c0,0.972,2.547,1.848,6.626,2.466v-1.61V9.908l0.473-0.222   c0.052-0.024,1.303-0.606,3.607-1.185c2.101-0.528,5.533-1.156,9.949-1.156c0.186,0,0.375,0.001,0.562,0.003   C36.707,7.402,40.22,8.026,42.36,8.54c2.347,0.563,3.602,1.116,3.654,1.14l0.487,0.217v0.533v0.514v1.097   c4.079-0.618,6.625-1.494,6.625-2.466C53.127,7.702,43.676,6.185,32.017,6.185z"/></g><g><path d="M13.783,101.302c0,2.043-0.399,3.698,1.644,3.698h33.18c2.043,0,1.644-1.655,1.644-3.698H13.783z"/></g><path d="M576.168,529.658h-29.455c-4.679-2.414-10.266-5.759-12.857-9.064c0.016-0.493,0.022-0.996,0.022-1.509  c0-5.839-0.845-10.572-6.684-10.572h-28.313V106.034c0,0-21.873-10.207-115.201-10.207c-2.025,0-3.963,0.203-5.814,0.592  c-79.916,1.076-99.268,10.102-99.268,10.102v401.992h-28.715c-5.839,0-6.197,4.733-6.197,10.572  c-0.369,3.545-5.961,7.515-11.398,10.573h-29.433c-2.819,0-5.104,2.285-5.104,5.104c0,2.819,2.285,5.104,5.104,5.104h373.313  c2.818,0,5.104-2.284,5.104-5.104C581.271,531.943,578.986,529.658,576.168,529.658z"/><path d="M710.229,158.879c77.074,0,140.547,9.346,148.894,21.365c0.616-0.886,0.941-1.787,0.941-2.699  c0-13.287-67.084-24.061-149.835-24.061c-82.752,0-149.836,10.773-149.836,24.061c0,0.912,0.324,1.813,0.941,2.699  C569.681,168.225,633.152,158.879,710.229,158.879z"/><g><path d="M710.229,161.893c-82.752,0-149.836,10.772-149.836,24.061c0,6.897,18.076,13.115,47.029,17.503v-11.429v-3.706   l3.354-1.575c0.37-0.173,9.254-4.303,25.607-8.409c14.913-3.744,39.268-8.208,70.611-8.207c1.32,0,2.661,0.008,3.986,0.023   c32.533,0.384,57.47,4.81,72.661,8.454c16.661,3.999,25.563,7.926,25.935,8.092l3.459,1.541v3.787v3.646v7.783   c28.953-4.388,47.028-10.605,47.028-17.503C860.063,172.665,792.979,161.893,710.229,161.893z"/></g><g><path d="M260.091,546.187c0,14.497-2.831,26.25,11.667,26.25h235.506c14.498,0,11.667-11.753,11.667-26.25H260.091z"/></g><path d="M807.565,486.674h0.12V195.625v-3.646c0,0-34.361-15.312-96.291-16.041c-61.93-0.729-97.656,16.041-97.656,16.041v295.449  h0.086c-0.091,2.205-0.086,4.564-0.086,7.02c0,12.15-0.15,22,12,22h169.947c12.15,0,12-9.85,12-22  C807.686,491.711,807.692,489.092,807.565,486.674z"/><path d="M809.008,566.67l-9.71-39.878c0,0,0.492-2.842-5.849-3.189c-4.453-0.245-42.521-0.146-64.816-0.064  c-0.256-0.06-0.521-0.091-0.793-0.091h-47.128c-0.188,0-0.371,0.021-0.554,0.049c-21.747-0.063-48.496-0.097-52.184,0.106  c-6.342,0.348-5.85,3.189-5.85,3.189l-9.709,39.878c0,0-3.472,6.443,6.363,6.443c5.07,0,36.391,0,65.533,0  c27.359,0,52.799,0,52.799,0c29.141,0,60.463,0,65.533,0C812.48,573.113,809.008,566.67,809.008,566.67z"/></svg>