<svg xmlns="http://www.w3.org/2000/svg" xmlns:xlink="http://www.w3.org/1999/xlink" version="1.1" x="0px" y="0px" viewBox="0 0 87 137.5" enable-background="new 0 0 87 110" xml:space="preserve"><path d="M26.412,71.495c0.067,0.008,6.761,0.715,14.759,0.715c8.143,0,16.123-0.628,16.203-0.634  c0.358-0.028,0.626-0.343,0.597-0.701c-0.028-0.358-0.343-0.626-0.701-0.598c-0.079,0.007-8.011,0.63-16.1,0.63  c-7.925,0-14.554-0.699-14.621-0.707c-0.358-0.039-0.679,0.221-0.717,0.578S26.054,71.457,26.412,71.495z"/><path d="M59.507,79.683c-0.08,0.008-8.063,0.81-18.336,0.81c-8.55,0-16.983-0.919-17.067-0.928c-0.359-0.04-0.68,0.219-0.719,0.576  c-0.04,0.358,0.218,0.68,0.576,0.72c0.085,0.009,8.586,0.935,17.21,0.935c10.339,0,18.388-0.809,18.468-0.816  c0.358-0.036,0.619-0.356,0.583-0.715C60.185,79.906,59.865,79.646,59.507,79.683z"/><path d="M80.357,76.275c-1.383-5.3-4.053-9.057-7.936-11.167c-2.685-1.46-5.523-1.889-7.928-1.889c-1.759,0-3.488,0.331-4.584,0.567  c-0.235-0.525-0.831-1.435-1.001-1.919c-0.05-0.142-0.117-0.573-0.127-0.618c0.015-0.419,0.196-1.755,0.486-2.726  c0.269-0.898,0.164-1.735-0.297-2.356c-0.256-0.345-0.86-0.926-2.029-0.929h-0.08c-0.435,0-0.945,0.012-1.514,0.032  c-0.057,0.506-0.11,1.01-0.137,1.519c-3.153,0.121-8.17,0.491-13.129,0.581c-0.738,0.014-1.476,0.019-2.206,0.019  c-4.712,0-9.068-0.259-11.001-0.525c-0.511-0.07-0.977-0.119-1.405-0.15c-0.003-0.043-0.006-0.087-0.006-0.132  c0-0.463,0.007-0.925,0.029-1.385c-0.374-0.025-0.728-0.039-1.062-0.039c-4.012,0-4.941,1.999-5.687,3.605  c-0.052,0.112-0.105,0.226-0.16,0.34c-0.168,0.355-0.682,1.435-0.073,2.398c0.345,0.547,0.94,0.858,1.634,0.858  c0.669,0,1.415-0.311,1.893-0.552h0.011c0.321,0,0.518,0.054,0.604,0.092c0.001,0.021,0.002,0.051,0,0.09  c-0.039,0.779-0.271,1.46-0.69,2.023c-0.145,0.159-0.282,0.324-0.409,0.492c-0.013,0.017-0.026,0.033-0.039,0.051  c-0.841,1.138-1.285,2.479-1.285,3.88c0,0.638,0.092,1.265,0.275,1.87c-0.062,0.189-0.171,0.442-0.366,0.754  c-1.72,1.419-2.701,3.47-2.701,5.666c0,0.896,0.163,1.769,0.484,2.601c-0.058,0.319-0.243,0.863-0.803,1.62  c-0.064,0.088-0.127,0.179-0.186,0.271c-1.605,1.551-2.521,3.682-2.521,5.881c0,1.105,0.221,2.175,0.657,3.187  c-0.038,0.212-0.131,0.511-0.34,0.896c-1.12,0.968-1.99,2.189-2.526,3.549c-0.156,0.395-0.283,0.802-0.38,1.212  c-0.099,0.417-0.167,0.839-0.205,1.252c-0.038,0.423-0.045,0.848-0.023,1.265c0.082,1.555,1.117,2.846,3.074,3.839  c1.479,0.751,3.494,1.353,6.16,1.842c4.524,0.83,10.724,1.286,18.427,1.355c0.479,0.005,0.962,0.007,1.438,0.007  c7.044,0,13.441-0.485,18.013-1.366c2.594-0.501,4.65-1.133,6.11-1.879c1.954-1,2.985-2.278,3.066-3.798  c0.016-0.309,0.012-0.62-0.007-0.937c0.021-0.093,0.033-0.186,0.024-0.278c-0.037-0.412-0.106-0.835-0.205-1.252  c-0.002-0.009-0.005-0.018-0.007-0.027c2.834-0.984,6.671-2.913,9.103-6.561C81.172,85.836,81.698,81.417,80.357,76.275z   M65.459,86.908c-0.107,0.011-10.84,1.046-24.196,1.046c-13.577,0-22.365-0.826-23.309-0.919c0.01-0.998,0.248-1.99,0.698-2.881  c0.463-0.917,1.195-1.538,1.791-2.347c0.361-0.489,0.655-1.039,0.841-1.62c0.081-0.252,0.184-0.551,0.199-0.816  c0.025-0.429-0.22-0.828-0.327-1.232c-0.122-0.459-0.178-0.938-0.178-1.412c0-1.113,0.331-2.214,0.945-3.142  c0.597-0.9,1.556-1.524,1.956-2.555c0.331-0.85-0.109-1.72-0.109-2.594c0-1.112,0.37-2.14,0.996-2.979  c0.003-0.005,0.006-0.008,0.008-0.012c0.116-0.153,0.239-0.3,0.371-0.44c0.401-0.519,0.974-1.47,1.047-2.938  c0.079-1.593-1.383-1.798-2.143-1.798c-0.265,0-0.444,0.024-0.444,0.024s-0.919,0.527-1.459,0.527c-0.366,0-0.557-0.241-0.17-1.054  c0.793-1.665,1.192-3.068,4.456-3.068c0.312,0,0.652,0.014,1.019,0.041l0.23,1.151c0,0,0.044,0.757,1.964,1.057  c2.268,0.355,8.317,0.686,11.048,0.789c0.047,0.022,0.093,0.035,0.138,0.035c0.117,0,0.303-0.004,0.544-0.011  c0.241,0.007,0.426,0.011,0.544,0.011c0.044,0,0.09-0.013,0.137-0.035c2.731-0.104,8.78-0.434,11.049-0.789  c1.919-0.3,1.963-1.057,1.963-1.057l0.215-1.076c0.6-0.022,1.132-0.036,1.58-0.036c0.025,0,0.05,0,0.074,0  c1.016,0.004,1.027,0.734,0.856,1.305c-0.339,1.135-0.551,2.707-0.551,3.217c0,0.589,1.023,2.678,1.337,3.208  c0,0,0.883,2.4,0.885,2.4c0.158,0.482,0.245,0.995,0.245,1.528c0,0.716-0.386,1.453-0.27,2.152c0.21,1.274,1.328,1.863,2.017,2.845  c0.674,0.96,1.044,2.119,1.044,3.293c0,1.041-0.621,2.092-0.424,3.113c0.258,1.346,1.176,2.12,1.986,3.13  c0.879,1.095,1.416,2.455,1.459,3.936C65.5,86.905,65.479,86.906,65.459,86.908z M76.121,87.603  c-1.904,2.866-5.043,4.448-7.401,5.281c-0.032-0.007-0.158,0.052-0.33,0.15c-0.45-0.664-0.988-1.271-1.602-1.802  c-0.209-0.386-0.302-0.685-0.34-0.896c0.437-1.012,0.657-2.082,0.657-3.188c0-1.924-0.701-3.796-1.953-5.273  c-0.19-0.229-0.392-0.448-0.608-0.656c-0.059-0.093-0.121-0.183-0.186-0.271c-0.561-0.757-0.746-1.301-0.803-1.62  c0.321-0.831,0.484-1.705,0.484-2.601c0-2.196-0.98-4.247-2.701-5.666c-0.194-0.312-0.304-0.564-0.366-0.754  c0.183-0.605,0.275-1.232,0.275-1.87c0-0.207-0.01-0.412-0.029-0.617c0.003,0,0.005,0.002,0.007,0.004  c-0.012-0.04-0.046-0.18-0.108-0.6c-0.181-0.345,0.058-0.493,0.204-0.498c0.847-0.149,1.946-0.284,3.177-0.284  c1.962,0,4.257,0.34,6.385,1.498c3.069,1.667,5.208,4.746,6.356,9.149C78.336,81.295,77.96,84.833,76.121,87.603z"/><path d="M61.225,67.823C61.234,67.852,61.233,67.832,61.225,67.823L61.225,67.823z"/><path d="M25.412,38c2.979,5.919,5.393,10.677,5.393,10.677s0.453,1.812-1.511,2.114c-1.963,0.302-10.27,1.208-11.327,1.661  c-1.057,0.453-1.963,1.661-0.302,2.568c0.495,0.27,2.79,0.478,5.801,0.631c0.743-0.321,1.701-0.52,2.965-0.52  c0.773,0,1.641,0.067,2.654,0.207c1.841,0.254,6.139,0.511,10.792,0.511c0.736,0,1.469-0.007,2.178-0.02  c3.209-0.057,6.389-0.231,9.194-0.384c2.306-0.125,4.296-0.234,5.614-0.234h0.08c0.68,0.002,1.167,0.199,1.507,0.432  c2.731-0.148,4.83-0.353,5.328-0.624c1.661-0.907,0.755-2.115-0.302-2.568C62.417,52,54.11,51.093,52.146,50.792  c-1.963-0.302-1.51-2.114-1.51-2.114S66.495,17.413,67.099,15.45c0.604-1.964-0.755-2.115-0.755-2.115h-0.119  c1.343-2.763,2.376-4.904,2.53-5.262c0.312-0.727,0.2-1.273,0.051-1.604c-0.296-0.66-0.906-0.892-1.026-0.932l-0.127-0.042h-0.134  H43.404h-5.503H13.787h-0.135l-0.127,0.042c-0.12,0.04-0.729,0.272-1.026,0.932c-0.148,0.33-0.259,0.876,0.052,1.604  c0.154,0.358,1.188,2.5,2.531,5.264c-0.149,0.024-1.306,0.272-0.74,2.113c0.084,0.271,0.458,1.1,1.04,2.327  c-0.588,0.015-1.222,0.052-1.875,0.123c-3.953,0.435-6.722,1.944-8.008,4.366c-0.57,1.074-0.937,2.864,0.553,5.3  c1.542,2.521,4.729,5.15,8.746,7.214C18.392,36.629,22.097,37.747,25.412,38z M13.312,7.747c-0.473-1.106,0.475-1.421,0.475-1.421  h24.114h5.503h24.114c0,0,0.947,0.315,0.474,1.421c-0.156,0.363-1.267,2.664-2.689,5.588H42.584h-1.312h-1.104h-1.312H16.002  C14.58,10.411,13.469,8.11,13.312,7.747z M8.542,26.042c-0.426-0.696-0.852-1.678-0.466-2.407c1.392-2.621,5.863-3.041,8.713-2.941  c1.705,3.493,4.074,8.245,6.379,12.842c-0.284,0.534-0.851,0.966-1.979,0.688c-0.156-0.046-0.312-0.094-0.468-0.144  c-0.046-0.018-0.092-0.035-0.14-0.054c-0.349-0.14-0.638-0.233-0.877-0.292C14.806,31.968,10.242,28.822,8.542,26.042z"/><circle cx="40.514" cy="64.279" r="0.942"/><circle cx="41.931" cy="67.104" r="0.732"/><circle cx="42.689" cy="62.342" r="0.471"/></svg>